<svg width="30" height="34" viewBox="0 0 30 34" fill="none" xmlns="http://www.w3.org/2000/svg">
<g filter="url(#filter0_d)">
<path opacity="0.24" fill-rule="evenodd" clip-rule="evenodd" d="M7.66927 22.4545C5.64382 22.4545 4 20.8655 4 18.9091C4 17.6106 4.72712 16.4532 5.83849 15.835C5.83849 15.4764 5.83333 11.2256 5.83333 11.2256C5.83333 7.14185 8.66852 3.70365 12.5556 2.6765V2.36364C12.5556 1.05824 13.65 0 15 0C16.35 0 17.4444 1.05824 17.4444 2.36364V2.6765C21.3323 3.70344 24.1667 7.14194 24.1667 11.2318V15.8454C25.2793 16.4664 26 17.619 26 18.9091C26 20.8681 24.3586 22.4545 22.3307 22.4545H18.6667C18.6646 24.413 17.0197 26 15 26C12.975 26 11.3333 24.4143 11.3333 22.4571L7.66927 22.4545ZM13.7778 22.4545C13.7778 23.1083 14.3244 23.6364 15 23.6364C15.6709 23.6364 16.2201 23.1064 16.2222 22.4545H13.7778ZM21.7222 11.2318V16.9427C21.7222 17.2702 21.9922 17.6032 22.3181 17.6847L22.6385 17.7648C23.1733 17.8984 23.5556 18.3689 23.5556 18.9091C23.5556 19.5624 23.0088 20.0909 22.3307 20.0909H7.66927C6.99369 20.0909 6.44444 19.56 6.44444 18.9091C6.44444 18.3666 6.82517 17.8979 7.36026 17.7647L7.69151 17.6823C8.0153 17.6017 8.27778 17.2732 8.27778 16.9426V11.2256C8.27778 7.63639 11.2868 4.72727 15 4.72727C18.7148 4.72727 21.7222 7.63541 21.7222 11.2318Z" fill="black"/>
</g>
<defs>
<filter id="filter0_d" x="0" y="0" width="30" height="34" filterUnits="userSpaceOnUse" color-interpolation-filters="sRGB">
<feFlood flood-opacity="0" result="BackgroundImageFix"/>
<feColorMatrix in="SourceAlpha" type="matrix" values="0 0 0 0 0 0 0 0 0 0 0 0 0 0 0 0 0 0 127 0"/>
<feOffset dy="4"/>
<feGaussianBlur stdDeviation="2"/>
<feColorMatrix type="matrix" values="0 0 0 0 0 0 0 0 0 0 0 0 0 0 0 0 0 0 0.25 0"/>
<feBlend mode="normal" in2="BackgroundImageFix" result="effect1_dropShadow"/>
<feBlend mode="normal" in="SourceGraphic" in2="effect1_dropShadow" result="shape"/>
</filter>
</defs>
</svg>
