<svg width="30" height="36" viewBox="0 0 30 36" fill="none" xmlns="http://www.w3.org/2000/svg">
<g filter="url(#filter0_d)">
<path opacity="0.24" fill-rule="evenodd" clip-rule="evenodd" d="M7.66927 24.233C5.64382 24.233 4 22.5446 4 20.4659C4 19.0862 4.72712 17.8565 5.83849 17.1997C5.83849 16.8186 5.83333 12.3022 5.83333 12.3022C5.83333 7.96321 8.66852 4.31013 12.5556 3.21878V2.88636C12.5556 1.49938 13.65 0.375 15 0.375C16.35 0.375 17.4444 1.49938 17.4444 2.88636V3.21878C21.3323 4.3099 24.1667 7.96331 24.1667 12.3087V17.2107C25.2793 17.8706 26 19.0951 26 20.4659C26 22.5473 24.3586 24.233 22.3307 24.233H18.6667C18.6646 26.3138 17.0197 28 15 28C12.975 28 11.3333 26.3152 11.3333 24.2357L7.66927 24.233ZM13.7778 24.233C13.7778 24.9275 14.3244 25.4886 15.0001 25.4886C15.671 25.4886 16.2202 24.9255 16.2223 24.233H13.7778ZM21.7222 12.3088V18.3766C21.7222 18.7246 21.9922 19.0784 22.3181 19.165L22.6385 19.2501C23.1733 19.3921 23.5556 19.892 23.5556 20.4659C23.5556 21.1601 23.0088 21.7216 22.3307 21.7216H7.66928C6.9937 21.7216 6.44446 21.1575 6.44446 20.4659C6.44446 19.8895 6.82519 19.3915 7.36028 19.25L7.69152 19.1624C8.01531 19.0768 8.27779 18.7278 8.27779 18.3765V12.3022C8.27779 8.48867 11.2868 5.39773 15 5.39773C18.7148 5.39773 21.7222 8.48763 21.7222 12.3088Z" fill="black"/>
</g>
<defs>
<filter id="filter0_d" x="0" y="0.375" width="30" height="35.625" filterUnits="userSpaceOnUse" color-interpolation-filters="sRGB">
<feFlood flood-opacity="0" result="BackgroundImageFix"/>
<feColorMatrix in="SourceAlpha" type="matrix" values="0 0 0 0 0 0 0 0 0 0 0 0 0 0 0 0 0 0 127 0"/>
<feOffset dy="4"/>
<feGaussianBlur stdDeviation="2"/>
<feColorMatrix type="matrix" values="0 0 0 0 0 0 0 0 0 0 0 0 0 0 0 0 0 0 0.25 0"/>
<feBlend mode="normal" in2="BackgroundImageFix" result="effect1_dropShadow"/>
<feBlend mode="normal" in="SourceGraphic" in2="effect1_dropShadow" result="shape"/>
</filter>
</defs>
</svg>
